<svg width="200" height="200" viewBox="0 0 200 200" fill="none" xmlns="http://www.w3.org/2000/svg"><rect width="200" height="200" rx="24" fill="#F3F5FA"/><path fill-rule="evenodd" clip-rule="evenodd" d="M74.2628 90.5112C73.2744 90.5112 72.4729 89.6839 72.4729 88.6629V73.8803C72.4729 72.8602 73.2744 72.0329 74.2628 72.0329H110.07C111.058 72.0329 111.86 72.8602 111.86 73.8803V88.6629C111.86 89.6839 111.058 90.5112 110.07 90.5112H74.2628ZM55.4648 59.0977V136.707H74.2628V103.446H91.2709L111.86 127.469L123.818 114.178L113.65 103.446H117.805C120.359 103.446 122.962 102.85 124.862 101.088C125.01 100.952 125.152 100.814 125.287 100.674C127.252 98.6463 128.868 96.1412 128.868 93.2728V70.7967C128.868 67.4247 127.859 63.9477 125.287 61.8696C124.878 61.539 124.354 61.1792 123.809 60.8331C121.886 59.6073 119.633 59.0977 117.373 59.0977H55.4648Z" fill="#231F20"/><path d="M124.714 144.049C128.439 140.188 132.11 136.089 135.684 131.793C172.619 87.3935 185.888 37.3173 165.31 19.951C148.953 6.15144 116.142 17.1671 84.8203 44.5596C111.186 24.4747 137.973 17.1236 149.978 27.2585C166.411 41.1233 153.11 84.3596 120.288 123.823C118.182 126.356 116.044 128.814 113.885 131.195L124.714 144.049Z" fill="#2187BA"/><path d="M114.181 154.745C82.9317 182.537 49.8785 193.906 33.5323 180.174C24.1916 172.319 21.9414 157.651 25.7944 139.854C24.0218 153.372 26.41 164.208 33.0865 169.817C46.4819 181.079 75.7882 169.019 103.821 142.515L114.181 154.745Z" fill="#231F20"/></svg>