<?xml version="1.0" encoding="UTF-8"?><svg xmlns="http://www.w3.org/2000/svg" xmlns:xlink="http://www.w3.org/1999/xlink" width="116px" height="44px" viewBox="0 0 117 44" version="1.1"><g id="surface1"><path style=" stroke:none;fill-rule:nonzero;fill:rgb(8.627451%,11.372549%,13.333333%);fill-opacity:1;" d="M 35.800781 32.851562 C 34.953125 33.734375 34.082031 34.585938 33.183594 35.402344 C 32.492188 36.039062 31.769531 36.632812 31.042969 37.214844 C 30.316406 37.796875 29.570312 38.335938 28.804688 38.847656 C 27.28125 39.851562 25.671875 40.71875 24.035156 41.191406 C 22.410156 41.660156 20.71875 41.683594 19.617188 40.648438 C 19.054688 40.152344 18.65625 39.386719 18.414062 38.515625 C 17.558594 36.179688 18.253906 33.386719 18.414062 30.839844 C 17.777344 32.339844 17.277344 33.925781 17.011719 35.605469 C 16.851562 36.648438 16.792969 37.734375 16.941406 38.851562 C 17.011719 39.410156 17.152344 39.972656 17.367188 40.519531 C 17.472656 40.796875 17.605469 41.0625 17.753906 41.328125 C 17.910156 41.585938 18.074219 41.839844 18.273438 42.070312 C 18.367188 42.191406 18.476562 42.300781 18.578125 42.410156 C 18.6875 42.515625 18.804688 42.609375 18.921875 42.710938 L 19.09375 42.859375 L 19.28125 42.984375 C 19.40625 43.066406 19.53125 43.15625 19.660156 43.230469 C 19.925781 43.363281 20.1875 43.511719 20.464844 43.597656 C 20.601562 43.644531 20.738281 43.707031 20.878906 43.738281 L 21.292969 43.84375 C 21.433594 43.882812 21.570312 43.894531 21.710938 43.917969 C 21.847656 43.933594 21.988281 43.960938 22.128906 43.96875 L 22.539062 43.992188 L 22.746094 44 L 22.949219 43.996094 C 23.21875 43.988281 23.492188 43.980469 23.757812 43.949219 L 24.15625 43.90625 L 24.546875 43.839844 C 25.589844 43.664062 26.578125 43.351562 27.535156 42.976562 C 28.488281 42.597656 29.414062 42.164062 30.296875 41.660156 C 31.179688 41.164062 32.042969 40.632812 32.875 40.058594 C 33.707031 39.480469 34.519531 38.875 35.300781 38.238281 C 35.699219 37.925781 36.078125 37.589844 36.46875 37.269531 C 36.660156 37.101562 36.847656 36.933594 37.035156 36.765625 C 37.226562 36.597656 37.414062 36.425781 37.597656 36.253906 L 37.621094 36.230469 Z M 35.800781 32.851562 "/><path style=" stroke:none;fill-rule:nonzero;fill:rgb(8.627451%,11.372549%,13.333333%);fill-opacity:1;" d="M 12.003906 20.863281 L 12.003906 17.945312 C 12.003906 17.769531 11.972656 17.65625 11.914062 17.605469 C 11.851562 17.554688 11.730469 17.527344 11.554688 17.527344 L 3.796875 17.527344 L 3.796875 21.300781 L 11.554688 21.300781 C 11.730469 21.300781 11.851562 21.273438 11.914062 21.214844 C 11.972656 21.15625 12.003906 21.039062 12.003906 20.863281 Z M 16.972656 29.835938 L 12.332031 29.835938 L 7.960938 24.328125 L 3.796875 24.328125 L 3.796875 29.835938 L 0 29.835938 L 0 14.542969 L 12.085938 14.542969 C 13.523438 14.542969 14.496094 14.761719 15.011719 15.203125 C 15.523438 15.640625 15.78125 16.472656 15.78125 17.703125 L 15.78125 21.148438 C 15.78125 22.375 15.523438 23.207031 15.011719 23.636719 C 14.496094 24.070312 13.625 24.300781 12.394531 24.328125 Z M 16.972656 29.835938 "/><path style=" stroke:none;fill-rule:nonzero;fill:rgb(8.627451%,11.372549%,13.333333%);fill-opacity:1;" d="M 65.75 26.304688 L 65.75 17.945312 C 65.75 17.769531 65.71875 17.65625 65.65625 17.605469 C 65.59375 17.554688 65.476562 17.527344 65.296875 17.527344 L 56 17.527344 C 55.808594 17.527344 55.679688 17.554688 55.613281 17.605469 C 55.542969 17.65625 55.507812 17.769531 55.507812 17.945312 L 55.507812 26.304688 C 55.507812 26.464844 55.542969 26.574219 55.613281 26.632812 C 55.679688 26.691406 55.808594 26.71875 56 26.71875 L 65.296875 26.71875 C 65.476562 26.71875 65.59375 26.691406 65.65625 26.632812 C 65.71875 26.574219 65.75 26.464844 65.75 26.304688 Z M 65.832031 29.945312 L 55.425781 29.945312 C 53.964844 29.945312 52.96875 29.691406 52.441406 29.1875 C 51.914062 28.683594 51.652344 27.691406 51.652344 26.214844 L 51.652344 18.164062 C 51.652344 16.6875 51.914062 15.695312 52.441406 15.191406 C 52.96875 14.6875 53.964844 14.433594 55.425781 14.433594 L 65.832031 14.433594 C 67.296875 14.433594 68.289062 14.6875 68.816406 15.191406 C 69.34375 15.695312 69.605469 16.6875 69.605469 18.164062 L 69.605469 26.214844 C 69.605469 27.691406 69.34375 28.683594 68.816406 29.1875 C 68.289062 29.691406 67.296875 29.945312 65.832031 29.945312 Z M 65.832031 29.945312 "/><path style=" stroke:none;fill-rule:nonzero;fill:rgb(8.627451%,11.372549%,13.333333%);fill-opacity:1;" d="M 92.210938 29.835938 L 89.613281 29.835938 L 81.28125 14.542969 L 85.714844 14.542969 L 88.902344 20.660156 C 89.625 22.050781 90.300781 23.425781 90.925781 24.789062 L 90.988281 24.789062 L 93.210938 20.722656 L 96.222656 14.542969 L 100.53125 14.542969 Z M 92.210938 29.835938 "/><path style=" stroke:none;fill-rule:nonzero;fill:rgb(100%,100%,100%);fill-opacity:1;" d="M 40.21875 26.449219 C 40.855469 25.601562 41.460938 24.753906 42.03125 23.910156 C 41.519531 22.832031 40.980469 21.746094 40.414062 20.652344 L 37.207031 14.503906 L 32.75 14.503906 L 39.660156 27.183594 C 39.847656 26.9375 40.035156 26.695312 40.21875 26.449219 Z M 40.21875 26.449219 "/><path style=" stroke:none;fill-rule:nonzero;fill:rgb(100%,100%,100%);fill-opacity:1;" d="M 52.949219 6.199219 C 52.886719 5.601562 52.742188 4.980469 52.554688 4.371094 L 52.386719 3.910156 L 52.296875 3.683594 C 52.265625 3.605469 52.226562 3.53125 52.191406 3.457031 C 52.117188 3.308594 52.042969 3.15625 51.964844 3.011719 L 51.695312 2.582031 C 50.949219 1.4375 49.753906 0.585938 48.550781 0.257812 C 48.472656 0.234375 48.398438 0.210938 48.324219 0.1875 L 48.101562 0.144531 C 47.949219 0.113281 47.800781 0.078125 47.652344 0.0585938 C 47.355469 0.0273438 47.058594 -0.00390625 46.773438 0 C 46.195312 -0.0117188 45.644531 0.0625 45.105469 0.148438 C 44.039062 0.351562 43.042969 0.699219 42.105469 1.125 C 40.230469 1.976562 38.546875 3.101562 36.984375 4.351562 C 35.421875 5.609375 33.976562 6.988281 32.636719 8.464844 C 32.296875 8.828125 31.972656 9.207031 31.644531 9.585938 C 31.328125 9.972656 31.003906 10.347656 30.695312 10.742188 C 30.074219 11.519531 29.484375 12.324219 28.917969 13.144531 C 30.363281 11.8125 31.820312 10.515625 33.339844 9.324219 C 34.09375 8.722656 34.863281 8.144531 35.644531 7.597656 C 36.421875 7.042969 37.214844 6.519531 38.019531 6.035156 C 38.820312 5.542969 39.636719 5.085938 40.464844 4.6875 C 41.296875 4.289062 42.132812 3.925781 42.972656 3.652344 C 43.816406 3.378906 44.660156 3.175781 45.472656 3.097656 C 45.875 3.074219 46.273438 3.054688 46.644531 3.105469 C 46.832031 3.113281 47.007812 3.160156 47.183594 3.191406 C 47.269531 3.207031 47.347656 3.238281 47.429688 3.257812 L 47.554688 3.292969 L 47.667969 3.339844 C 47.980469 3.449219 48.238281 3.621094 48.464844 3.816406 L 48.550781 3.890625 C 48.582031 3.914062 48.609375 3.9375 48.628906 3.96875 C 48.679688 4.027344 48.730469 4.082031 48.78125 4.136719 C 48.832031 4.191406 48.867188 4.265625 48.914062 4.324219 L 48.980469 4.417969 C 49 4.445312 49.015625 4.488281 49.035156 4.519531 C 49.074219 4.59375 49.109375 4.660156 49.148438 4.730469 C 49.179688 4.808594 49.210938 4.886719 49.246094 4.964844 L 49.292969 5.078125 L 49.332031 5.207031 L 49.414062 5.457031 C 49.492188 5.820312 49.570312 6.191406 49.589844 6.605469 C 49.648438 7.414062 49.582031 8.292969 49.449219 9.179688 C 49.316406 10.070312 49.101562 10.96875 48.84375 11.863281 C 48.582031 12.757812 48.269531 13.652344 47.925781 14.535156 C 47.757812 14.976562 47.566406 15.414062 47.382812 15.851562 L 47.089844 16.503906 C 46.992188 16.722656 46.890625 16.9375 46.785156 17.152344 C 46.378906 18.015625 45.941406 18.863281 45.484375 19.707031 C 45.25 20.125 45.023438 20.546875 44.773438 20.957031 L 44.410156 21.578125 L 44.03125 22.1875 C 43.035156 23.828125 41.949219 25.410156 40.796875 26.9375 C 40.550781 27.265625 40.304688 27.59375 40.054688 27.914062 L 42.042969 31.59375 C 42.296875 31.296875 42.546875 31 42.789062 30.699219 L 43.273438 30.105469 L 43.746094 29.503906 C 44.988281 27.886719 46.164062 26.203125 47.246094 24.449219 C 49.394531 20.929688 51.242188 17.148438 52.339844 12.949219 C 52.605469 11.894531 52.820312 10.8125 52.945312 9.691406 C 53.074219 8.570312 53.101562 7.40625 52.949219 6.199219 Z M 52.949219 6.199219 "/><path style=" stroke:none;fill-rule:nonzero;fill:rgb(8.627451%,11.372549%,13.333333%);fill-opacity:1;" d="M 85.507812 26.675781 L 85.472656 26.609375 L 75.066406 26.609375 L 75.066406 14.542969 L 71.210938 14.542969 L 71.210938 29.835938 L 87.230469 29.835938 Z M 85.507812 26.675781 "/><path style=" stroke:none;fill-rule:nonzero;fill:rgb(100%,100%,100%);fill-opacity:1;" d="M 116.621094 22.804688 C 116.402344 22.402344 116.039062 22.113281 115.53125 21.9375 C 116.050781 21.660156 116.40625 21.328125 116.589844 20.9375 C 116.773438 20.550781 116.867188 19.949219 116.867188 19.128906 L 116.867188 17.703125 C 116.867188 16.472656 116.605469 15.640625 116.085938 15.203125 C 115.566406 14.761719 114.574219 14.542969 113.109375 14.542969 L 102.914062 14.542969 L 101.289062 17.527344 L 112.640625 17.527344 C 112.816406 17.527344 112.9375 17.554688 113 17.605469 C 113.058594 17.65625 113.089844 17.769531 113.089844 17.945312 L 113.089844 20.050781 C 113.089844 20.226562 113.058594 20.339844 113 20.390625 C 112.9375 20.441406 112.816406 20.46875 112.640625 20.46875 L 106.726562 20.46875 L 105.3125 23.40625 L 112.640625 23.40625 C 112.816406 23.40625 112.9375 23.433594 113 23.484375 C 113.058594 23.535156 113.089844 23.648438 113.089844 23.824219 L 113.089844 26.257812 C 113.089844 26.433594 113.058594 26.546875 113 26.597656 C 112.9375 26.648438 112.816406 26.675781 112.640625 26.675781 L 96.3125 26.675781 L 94.59375 29.835938 L 113.007812 29.835938 C 114.472656 29.835938 115.496094 29.621094 116.078125 29.199219 C 116.65625 28.773438 116.949219 27.949219 116.949219 26.71875 L 116.949219 24.722656 C 116.949219 23.84375 116.839844 23.207031 116.621094 22.804688 Z M 116.621094 22.804688 "/><path style=" stroke:none;fill-rule:nonzero;fill:rgb(8.627451%,11.372549%,13.333333%);fill-opacity:1;" d="M 21.09375 23.40625 L 28.625 23.40625 L 28.625 20.445312 L 21.09375 20.445312 L 21.09375 17.59375 L 33.570312 17.59375 L 31.90625 14.542969 L 17.257812 14.542969 L 17.257812 29.835938 L 34.179688 29.835938 L 32.457031 26.675781 L 21.09375 26.675781 Z M 21.09375 23.40625 "/></g></svg>